<svg width="63" height="86" viewBox="0 0 63 86" fill="none" xmlns="http://www.w3.org/2000/svg">
<path d="M54.0534 79.163C54.0534 82.5725 43.8043 85.3291 31.1717 85.3291C18.5391 85.3291 8.29004 82.5725 8.29004 79.163C8.29004 76.3443 15.3369 73.9608 24.9539 73.2354L29.8245 80.3444C30.467 81.2875 31.866 81.2875 32.5189 80.3444L37.3896 73.2354C47.0065 73.9608 54.0534 76.3339 54.0534 79.163Z" fill="#2A6C44"/>
<path d="M42.4575 60.2302L32.3535 74.9769C31.7836 75.8059 30.5711 75.8059 30.0011 74.9769L19.8971 60.2406C8.24901 55.7223 0 44.4058 0 31.1721C0 13.9487 13.9591 0 31.1721 0C48.2919 0 62.137 13.6793 62.3443 30.7991C62.5101 44.1882 54.2092 55.6705 42.4575 60.2302Z" fill="#2A6C44"/>
<path fill-rule="evenodd" clip-rule="evenodd" d="M42.9132 29.4621L35.3689 22.8193V39.5453H50.4575V22.8193L42.9132 29.4621ZM40.0737 35.9183C39.3276 35.9183 38.7265 35.3172 38.7265 34.5711C38.7265 33.8249 39.3276 33.2239 40.0737 33.2239C40.8199 33.2239 41.4209 33.8249 41.4209 34.5711C41.4209 35.3068 40.8199 35.9183 40.0737 35.9183ZM45.7631 35.9183C45.0169 35.9183 44.4159 35.3172 44.4159 34.5711C44.4159 33.8249 45.0169 33.2239 45.7631 33.2239C46.5092 33.2239 47.1103 33.8249 47.1103 34.5711C47.0999 35.3068 46.4988 35.9183 45.7631 35.9183ZM17.8968 33.1202H13.565L17.9797 23.2753H4.35225V29.7522H8.08296L3.73047 39.5453H17.8968V33.1202ZM33.8455 32.7886V23.2753H27.379V32.7057C27.379 33.1617 27.0059 33.5347 26.5499 33.5347C26.0939 33.5347 25.7209 33.1617 25.7209 32.7057V23.2753H19.2543V32.7886C19.2543 36.8198 22.5187 40.0842 26.5499 40.0842C30.5811 40.0842 33.8455 36.8198 33.8455 32.7886ZM52.1779 23.2753H58.6237V39.5453H52.1779V23.2753Z" fill="white"/>
</svg>
