<svg width="45" height="45" viewBox="0 0 45 45" fill="none" xmlns="http://www.w3.org/2000/svg">
    <circle cx="22.5" cy="22.5" r="22" fill="white" stroke="#D2D2D2" />
    <g clip-path="url(#clip0_1737_3046)">
        <path
            d="M28.1287 6.75C28.1968 6.75 28.2649 6.75 28.3368 6.75C28.5038 8.81277 27.7164 10.3541 26.7595 11.4702C25.8206 12.5787 24.5349 13.6537 22.4555 13.4906C22.3168 11.4574 23.1054 10.0304 24.061 8.91681C24.9472 7.879 26.572 6.95551 28.1287 6.75Z"
            fill="black" />
        <path
            d="M34.4241 28.2197C34.4241 28.2402 34.4241 28.2582 34.4241 28.2775C33.8397 30.0474 33.0061 31.5643 31.9888 32.972C31.0602 34.25 29.9222 35.9698 27.8903 35.9698C26.1345 35.9698 24.9682 34.8408 23.1688 34.81C21.2653 34.7792 20.2185 35.754 18.4781 35.9994C18.279 35.9994 18.0799 35.9994 17.8847 35.9994C16.6067 35.8144 15.5753 34.8023 14.8239 33.8904C12.6083 31.1957 10.8962 27.7149 10.5776 23.2605C10.5776 22.8238 10.5776 22.3884 10.5776 21.9517C10.7125 18.7638 12.2615 16.1718 14.3204 14.9157C15.407 14.2478 16.9008 13.6788 18.5641 13.9331C19.277 14.0436 20.0052 14.2876 20.6436 14.5291C21.2486 14.7616 22.0051 15.1739 22.7218 15.152C23.2073 15.1379 23.6902 14.8849 24.1796 14.7063C25.613 14.1887 27.0182 13.5953 28.8703 13.874C31.0962 14.2105 32.676 15.1995 33.6522 16.7254C31.7692 17.9238 30.2806 19.7297 30.5349 22.8136C30.7609 25.6149 32.3896 27.2538 34.4241 28.2197Z"
            fill="black" />
    </g>
    <defs>
        <clipPath id="clip0_1737_3046">
            <rect width="29.25" height="29.25" fill="white" transform="translate(7.875 6.75)" />
        </clipPath>
    </defs>
</svg>
