<svg width="60" height="60" viewBox="0 0 60 60" fill="none" xmlns="http://www.w3.org/2000/svg">
<path d="M38.9167 2.12848V57.8718C38.9167 58.5321 38.3818 59.0658 37.7227 59.0658H1.19402C0.534844 59.0657 0 58.5321 0 57.8718V2.12848C0 1.46813 0.534844 0.93457 1.19402 0.93457H37.7228C38.3818 0.93457 38.9167 1.46813 38.9167 2.12848Z" fill="#F8F3F1"/>
<path d="M11.0483 13.7375H6.42818C5.71568 13.7375 5.13806 13.1598 5.13806 12.4473V7.82723C5.13806 7.11473 5.71568 6.53711 6.42818 6.53711H11.0482C11.7607 6.53711 12.3383 7.11473 12.3383 7.82723V12.4472C12.3383 13.1598 11.7608 13.7375 11.0483 13.7375Z" fill="#35BCC7"/>
<path d="M8.70096 11.876C8.46928 11.876 8.23748 11.7875 8.06064 11.6108L7.08377 10.6339C6.73021 10.2804 6.73021 9.7071 7.08377 9.35343C7.43744 8.99987 8.01061 8.99987 8.3644 9.35343L8.70096 9.69011L12.5179 5.87308C12.8715 5.51952 13.4447 5.51952 13.7985 5.87308C14.1521 6.22663 14.1521 6.79991 13.7985 7.15358L9.34127 11.6108C9.16443 11.7876 8.93264 11.876 8.70096 11.876Z" fill="#FDD330"/>
<path d="M20.4132 11.279H17.5574C17.0572 11.279 16.652 10.8737 16.652 10.3737C16.652 9.87361 17.0573 9.46826 17.5574 9.46826H20.4132C20.9134 9.46826 21.3186 9.87361 21.3186 10.3737C21.3187 10.8737 20.9134 11.279 20.4132 11.279Z" fill="#C9C0C7"/>
<path d="M33.7781 14.6428H17.5574C17.0572 14.6428 16.652 14.2375 16.652 13.7374C16.652 13.2374 17.0573 12.832 17.5574 12.832H33.7781C34.2783 12.832 34.6835 13.2374 34.6835 13.7374C34.6836 14.2373 34.2783 14.6428 33.7781 14.6428Z" fill="#C9C0C7"/>
<path d="M11.0483 25.4727H6.42818C5.71568 25.4727 5.13806 24.8951 5.13806 24.1826V19.5626C5.13806 18.8501 5.71568 18.2725 6.42818 18.2725H11.0482C11.7607 18.2725 12.3383 18.8501 12.3383 19.5626V24.1826C12.3383 24.8951 11.7608 25.4727 11.0483 25.4727Z" fill="#35BCC7"/>
<path d="M8.70094 23.611C8.46926 23.611 8.23747 23.5226 8.06075 23.3458L7.08387 22.3689C6.7302 22.0154 6.7302 21.4421 7.08375 21.0884C7.43743 20.7349 8.01071 20.7347 8.36426 21.0884L8.70094 21.425L12.5179 17.6079C12.8715 17.2544 13.4447 17.2544 13.7985 17.6079C14.152 17.9615 14.152 18.5348 13.7985 18.8884L9.34125 23.3457C9.16442 23.5226 8.93262 23.611 8.70094 23.611Z" fill="#FDD330"/>
<path d="M20.4132 23.0139H17.5574C17.0572 23.0139 16.652 22.6086 16.652 22.1085C16.652 21.6085 17.0573 21.2031 17.5574 21.2031H20.4132C20.9134 21.2031 21.3186 21.6085 21.3186 22.1085C21.3186 22.6086 20.9134 23.0139 20.4132 23.0139Z" fill="#C9C0C7"/>
<path d="M33.7781 26.3782H17.5574C17.0572 26.3782 16.652 25.9728 16.652 25.4728C16.652 24.9727 17.0573 24.5674 17.5574 24.5674H33.7781C34.2783 24.5674 34.6835 24.9727 34.6835 25.4728C34.6835 25.9728 34.2783 26.3782 33.7781 26.3782Z" fill="#C9C0C7"/>
<path d="M11.0483 37.208H6.42818C5.71568 37.208 5.13806 36.6304 5.13806 35.9179V31.2979C5.13806 30.5854 5.71568 30.0078 6.42818 30.0078H11.0482C11.7607 30.0078 12.3383 30.5854 12.3383 31.2979V35.9179C12.3383 36.6305 11.7608 37.208 11.0483 37.208Z" fill="#FCA62F"/>
<path d="M20.4132 34.7498H17.5574C17.0572 34.7498 16.652 34.3444 16.652 33.8444C16.652 33.3443 17.0573 32.939 17.5574 32.939H20.4132C20.9134 32.939 21.3186 33.3443 21.3186 33.8444C21.3187 34.3443 20.9134 34.7498 20.4132 34.7498Z" fill="#C9C0C7"/>
<path d="M33.7781 38.1135H17.5574C17.0572 38.1135 16.652 37.7082 16.652 37.2081C16.652 36.7081 17.0573 36.3027 17.5574 36.3027H33.7781C34.2783 36.3027 34.6835 36.7081 34.6835 37.2081C34.6836 37.7082 34.2783 38.1135 33.7781 38.1135Z" fill="#C9C0C7"/>
<path d="M11.0483 48.9434H6.42818C5.71568 48.9434 5.13806 48.3658 5.13806 47.6533V43.0333C5.13806 42.3208 5.71568 41.7432 6.42818 41.7432H11.0482C11.7607 41.7432 12.3383 42.3208 12.3383 43.0333V47.6533C12.3383 48.3658 11.7608 48.9434 11.0483 48.9434Z" fill="#FEE265"/>
<path d="M20.4132 46.4851H17.5574C17.0572 46.4851 16.652 46.0797 16.652 45.5797C16.652 45.0797 17.0573 44.6743 17.5574 44.6743H20.4132C20.9134 44.6743 21.3186 45.0797 21.3186 45.5797C21.3187 46.0796 20.9134 46.4851 20.4132 46.4851Z" fill="#C9C0C7"/>
<path d="M33.7781 49.8489H17.5574C17.0572 49.8489 16.652 49.4435 16.652 48.9435C16.652 48.4434 17.0573 48.0381 17.5574 48.0381H33.7781C34.2783 48.0381 34.6835 48.4434 34.6835 48.9435C34.6835 49.4435 34.2783 49.8489 33.7781 49.8489Z" fill="#C9C0C7"/>
<path d="M41.5977 55.6103C51.761 55.6103 60 47.3713 60 37.208C60 27.0447 51.761 18.8057 41.5977 18.8057C31.4344 18.8057 23.1954 27.0447 23.1954 37.208C23.1954 47.3713 31.4344 55.6103 41.5977 55.6103Z" fill="#5591D6"/>
<path d="M41.5977 51.3073C49.3845 51.3073 55.6969 44.9948 55.6969 37.2081C55.6969 29.4213 49.3845 23.1089 41.5977 23.1089C33.811 23.1089 27.4985 29.4213 27.4985 37.2081C27.4985 44.9948 33.811 51.3073 41.5977 51.3073Z" fill="#F8F3F1"/>
<path d="M43.4326 43.0368L40.4678 38.0932L42.5 37L45.4648 41.9436C45.6512 42.2544 45.5504 42.6574 45.2396 42.8437L44.3327 43.2619C44.022 43.4483 43.6189 43.3475 43.4326 43.0368Z" fill="#FEE265"/>
<path d="M41.628 36.6877C41.1279 36.6877 40.7227 36.2823 40.7227 35.7823V30.1476C40.7227 29.6475 41.128 29.2422 41.628 29.2422C42.1281 29.2422 42.5334 29.6475 42.5334 30.1476V35.7823C42.5336 36.2823 42.1282 36.6877 41.628 36.6877Z" fill="#5591D6"/>
<path d="M41.5977 39.2372C42.7183 39.2372 43.6267 38.3288 43.6267 37.2082C43.6267 36.0876 42.7183 35.1792 41.5977 35.1792C40.4771 35.1792 39.5687 36.0876 39.5687 37.2082C39.5687 38.3288 40.4771 39.2372 41.5977 39.2372Z" fill="#FB9927"/>
<path d="M52.143 38.0897C52.1416 38.0897 52.1403 38.0897 52.1389 38.0897H52.1254C51.6254 38.0875 51.2218 37.6804 51.224 37.1803C51.2262 36.6816 51.6312 36.2788 52.1293 36.2788H52.1334L52.1469 36.2789C52.6469 36.2812 53.0505 36.6883 53.0483 37.1883C53.046 37.6869 52.641 38.0897 52.143 38.0897Z" fill="#B9AFB9"/>
<path d="M31.0662 38.0896H31.0527C30.5526 38.0896 30.1473 37.6842 30.1473 37.1842C30.1473 36.6842 30.5527 36.2788 31.0527 36.2788H31.0662C31.5664 36.2788 31.9716 36.6842 31.9716 37.1842C31.9716 37.6841 31.5662 38.0896 31.0662 38.0896Z" fill="#B9AFB9"/>
<path d="M41.5676 27.5581C41.0675 27.5581 40.6622 27.1528 40.6622 26.6528V26.6393C40.6622 26.1392 41.0676 25.7339 41.5676 25.7339C42.0677 25.7339 42.473 26.1392 42.473 26.6393V26.6528C42.4731 27.1528 42.0678 27.5581 41.5676 27.5581Z" fill="#B9AFB9"/>
<path d="M41.6279 48.6348C41.1278 48.6348 40.7225 48.2295 40.7225 47.7294V47.7159C40.7225 47.2159 41.1279 46.8105 41.6279 46.8105C42.128 46.8105 42.5333 47.2159 42.5333 47.7159V47.7294C42.5334 48.2293 42.1281 48.6348 41.6279 48.6348Z" fill="#B9AFB9"/>
<path d="M36.3068 28.9845C35.9934 28.9845 35.6888 28.8218 35.5213 28.5307L35.5146 28.5189C35.2651 28.0856 35.4141 27.532 35.8475 27.2825C36.2807 27.0331 36.8343 27.1819 37.084 27.6154L37.0906 27.6271C37.3401 28.0605 37.1911 28.6141 36.7577 28.8636C36.6154 28.9455 36.46 28.9845 36.3068 28.9845Z" fill="#B9AFB9"/>
<path d="M32.4614 32.8502C32.3082 32.8502 32.1531 32.8113 32.0109 32.7295L31.9991 32.7227C31.5656 32.4735 31.4162 31.92 31.6654 31.4864C31.9148 31.0528 32.4684 30.9038 32.9016 31.1528L32.9135 31.1596C33.3469 31.4088 33.4964 31.9623 33.2471 32.3959C33.0796 32.6872 32.7748 32.8502 32.4614 32.8502Z" fill="#B9AFB9"/>
<path d="M50.7444 43.3364C50.5911 43.3364 50.4357 43.2975 50.2934 43.2155L50.2817 43.2088C49.8483 42.9593 49.6993 42.4057 49.9488 41.9723C50.1985 41.539 50.7522 41.39 51.1852 41.6394L51.1969 41.6461C51.6303 41.8956 51.7794 42.4492 51.5299 42.8825C51.3623 43.1735 51.0576 43.3364 50.7444 43.3364Z" fill="#B9AFB9"/>
<path d="M46.8889 28.9845C46.7362 28.9845 46.5815 28.9459 46.4396 28.8645C46.0057 28.616 45.8555 28.0627 46.1041 27.6288L46.1107 27.6171C46.3594 27.1831 46.9127 27.0331 47.3465 27.2814C47.7803 27.53 47.9305 28.0832 47.682 28.5172L47.6753 28.5289C47.508 28.8209 47.2028 28.9845 46.8889 28.9845Z" fill="#B9AFB9"/>
<path d="M36.2983 47.2072C36.145 47.2072 35.9896 47.1683 35.8474 47.0862C35.414 46.8367 35.265 46.2832 35.5145 45.8498L35.5211 45.8381C35.771 45.4046 36.3247 45.2558 36.7576 45.5051C37.1909 45.7546 37.34 46.3082 37.0905 46.7416L37.0838 46.7533C36.9163 47.0444 36.6117 47.2072 36.2983 47.2072Z" fill="#B9AFB9"/>
<path d="M50.7343 32.8502C50.4208 32.8502 50.116 32.6872 49.9485 32.396C49.6993 31.9624 49.8487 31.4089 50.2822 31.1597L50.294 31.1529C50.7273 30.9036 51.2809 31.053 51.5302 31.4865C51.7795 31.9201 51.63 32.4736 51.1966 32.7228L51.1847 32.7296C51.0425 32.8113 50.8872 32.8502 50.7343 32.8502Z" fill="#B9AFB9"/>
<path d="M32.4514 43.3365C32.1393 43.3365 31.8356 43.175 31.6677 42.8855C31.4165 42.4531 31.5635 41.8989 31.9959 41.6479L32.0076 41.6411C32.4399 41.3901 32.9941 41.5369 33.2452 41.9694C33.4964 42.4018 33.3494 42.956 32.917 43.207L32.9053 43.2138C32.7622 43.297 32.6056 43.3365 32.4514 43.3365Z" fill="#B9AFB9"/>
<path d="M46.8972 47.2067C46.5839 47.2067 46.2793 47.044 46.1117 46.7529L46.105 46.7411C45.8555 46.3078 46.0046 45.7542 46.438 45.5047C46.8712 45.2552 47.4249 45.4042 47.6744 45.8376L47.6811 45.8494C47.9306 46.2827 47.7815 46.8363 47.3482 47.0858C47.2059 47.1677 47.0505 47.2067 46.8972 47.2067Z" fill="#B9AFB9"/>
</svg>
