<svg width="24" height="21" viewBox="0 0 24 21" fill="none" xmlns="http://www.w3.org/2000/svg">
<path d="M22.4338 14.8217H7.31367L8.07285 13.2754L20.6869 13.2525C21.1135 13.2525 21.4791 12.9479 21.5553 12.5264L23.3021 2.74844C23.3478 2.49199 23.2793 2.22793 23.1117 2.02734C23.0289 1.92863 22.9256 1.84911 22.809 1.7943C22.6923 1.7395 22.5652 1.71072 22.4363 1.70996L6.38945 1.65664L6.25234 1.01172C6.16602 0.600391 5.79531 0.300781 5.37383 0.300781H1.45098C1.21327 0.300781 0.985291 0.395211 0.817204 0.563298C0.649118 0.731385 0.554688 0.95936 0.554688 1.19707C0.554688 1.43478 0.649118 1.66276 0.817204 1.83084C0.985291 1.99893 1.21327 2.09336 1.45098 2.09336H4.64766L5.24687 4.94219L6.72207 12.0846L4.82285 15.1848C4.72422 15.3179 4.66482 15.476 4.65135 15.6411C4.63789 15.8062 4.67091 15.9718 4.74668 16.1191C4.89902 16.4213 5.20625 16.6117 5.54648 16.6117H7.14102C6.80108 17.0632 6.61747 17.6132 6.61797 18.1783C6.61797 19.6154 7.78594 20.7834 9.22305 20.7834C10.6602 20.7834 11.8281 19.6154 11.8281 18.1783C11.8281 17.6121 11.6402 17.0611 11.3051 16.6117H15.3955C15.0556 17.0632 14.872 17.6132 14.8725 18.1783C14.8725 19.6154 16.0404 20.7834 17.4775 20.7834C18.9146 20.7834 20.0826 19.6154 20.0826 18.1783C20.0826 17.6121 19.8947 17.0611 19.5596 16.6117H22.4363C22.9289 16.6117 23.3326 16.2105 23.3326 15.7154C23.3311 15.478 23.2358 15.2507 23.0674 15.0833C22.899 14.9159 22.6713 14.8218 22.4338 14.8217ZM6.7627 3.42383L21.3826 3.47207L19.9506 11.4904L8.4664 11.5107L6.7627 3.42383ZM9.22305 18.9807C8.78125 18.9807 8.4207 18.6201 8.4207 18.1783C8.4207 17.7365 8.78125 17.376 9.22305 17.376C9.66484 17.376 10.0254 17.7365 10.0254 18.1783C10.0254 18.3911 9.94086 18.5952 9.79039 18.7457C9.63992 18.8961 9.43584 18.9807 9.22305 18.9807ZM17.4775 18.9807C17.0357 18.9807 16.6752 18.6201 16.6752 18.1783C16.6752 17.7365 17.0357 17.376 17.4775 17.376C17.9193 17.376 18.2799 17.7365 18.2799 18.1783C18.2799 18.3911 18.1953 18.5952 18.0449 18.7457C17.8944 18.8961 17.6903 18.9807 17.4775 18.9807Z" fill="#2A6C44"/>
</svg>
