<svg width="45" height="45" viewBox="0 0 45 45" fill="none" xmlns="http://www.w3.org/2000/svg">
    <circle cx="22.5" cy="22.5" r="22" fill="white" stroke="#D2D2D2" />
    <path
        d="M36.0003 22.8C36.0003 21.69 35.9084 20.88 35.7095 20.04H22.7757V25.05H30.3675C30.2145 26.2951 29.388 28.1701 27.5512 29.43L27.5255 29.5978L31.6149 32.7024L31.8982 32.7301C34.5002 30.3751 36.0003 26.91 36.0003 22.8Z"
        fill="#4285F4" />
    <path
        d="M22.7752 36.0001C26.4946 36.0001 29.617 34.8 31.8977 32.7301L27.5507 29.4299C26.3875 30.2249 24.8262 30.7799 22.7752 30.7799C19.1324 30.7799 16.0405 28.425 14.9384 25.1699L14.7768 25.1834L10.5246 28.4084L10.469 28.5599C12.7343 32.97 17.3874 36.0001 22.7752 36.0001Z"
        fill="#34A853" />
    <path
        d="M14.9388 25.1698C14.6479 24.3298 14.4796 23.4298 14.4796 22.4998C14.4796 21.5697 14.6479 20.6698 14.9235 19.8298L14.9158 19.6509L10.6102 16.374L10.4694 16.4397C9.53572 18.2697 9 20.3248 9 22.4998C9 24.6748 9.53572 26.7298 10.4694 28.5598L14.9388 25.1698Z"
        fill="#FBBC05" />
    <path
        d="M22.7753 14.22C25.362 14.22 27.1069 15.315 28.1018 16.2301L31.9896 12.51C29.6019 10.335 26.4946 9 22.7753 9C17.3874 9 12.7343 12.03 10.469 16.44L14.9231 19.8301C16.0406 16.5751 19.1324 14.22 22.7753 14.22Z"
        fill="#EB4335" />
</svg>
