<svg width="94" height="70" viewBox="0 0 94 70" fill="none" xmlns="http://www.w3.org/2000/svg"
    xmlns:xlink="http://www.w3.org/1999/xlink">
    <g>
        <path
            d="M52.9057 104.316L38.9414 105.021L37.7801 105.078L13.878 106.277C13.878 106.277 10.7463 59.3582 5.02539 49.1634C5.02539 49.1634 15.4962 46.3743 31.469 46.5457H32.7446C37.3018 46.6243 41.8518 46.9421 46.3757 47.4976C46.3757 47.4976 53.0675 64.6602 52.9057 104.316Z"
            fill="#407BFF" />
        <path
            d="M18.5039 48.6773C22.2639 52.0946 31.4687 50.8381 31.4687 50.8381C31.4687 50.8381 37.1801 49.258 36.0188 47.4589C32.63 46.9068 30.9832 45.3267 30.3074 43.2991C29.9406 42.0459 29.8242 40.7327 29.9647 39.4344C30.0218 38.7096 30.1171 37.9884 30.2503 37.2736L18.8275 28.8398C20.3506 34.4084 22.1782 44.6699 18.5039 48.6773Z"
            fill="#EEC1BB" />
        <path opacity="0.2"
            d="M21.4932 34.1992C21.9501 41.0338 27.5662 42.9186 30.3077 43.2993C29.9409 42.0461 29.8245 40.7329 29.965 39.4346L21.4932 34.1992Z"
            fill="black" />
        <path
            d="M35.9142 10.459C35.9142 10.459 40.4262 20.2254 36.1331 25.6893C31.8401 31.1532 26.3477 12.1629 26.3477 12.1629L35.9142 10.459Z"
            fill="#263238" />
        <path
            d="M22.7306 38.3873C24.3529 39.7425 26.3751 40.5277 28.4869 40.6223C30.5986 40.7169 32.6829 40.1156 34.4199 38.9109C36.6938 37.3962 38.3042 35.0709 38.9223 32.4094C39.0168 32.04 39.0867 31.6648 39.1317 31.2862C39.998 24.2708 37.6944 13.105 29.9079 10.9157C27.2445 10.1537 24.3878 10.4781 21.9632 11.818C19.5385 13.1579 17.7437 15.404 16.9716 18.0644C16.5108 19.6415 16.4325 21.3057 16.7432 22.9191C18.0378 30.4581 18.4471 34.951 22.7306 38.3873Z"
            fill="#EEC1BB" />
        <path
            d="M27.5558 23.7282C27.5558 24.3469 28.0032 24.8133 28.4221 24.7657C28.8409 24.7181 29.0884 24.1756 29.0218 23.5568C28.9551 22.9381 28.5648 22.4812 28.165 22.5288C27.7652 22.5764 27.4892 23.119 27.5558 23.7282Z"
            fill="#263238" />
        <path
            d="M34.5529 22.9671C34.5529 23.5859 35.0098 24.0428 35.4096 23.9952C35.8094 23.9476 36.0855 23.4145 36.0188 22.7958C35.9522 22.1771 35.5619 21.7106 35.1621 21.7582C34.7623 21.8058 34.4863 22.377 34.5529 22.9671Z"
            fill="#263238" />
        <path
            d="M33.3154 23.5195C34.2657 25.3278 35.4605 26.9966 36.866 28.4789C36.4754 28.8315 36.0119 29.0937 35.5084 29.2467C35.0049 29.3997 34.4739 29.4398 33.9532 29.3642L33.3154 23.5195Z"
            fill="#D4827D" />
        <path
            d="M37.7606 19.6833C37.703 19.7177 37.6373 19.7359 37.5702 19.7359C37.5032 19.7359 37.4374 19.7177 37.3798 19.6833C36.9711 19.4767 36.5195 19.3691 36.0614 19.3691C35.6034 19.3691 35.1518 19.4767 34.7431 19.6833C34.6595 19.7328 34.5599 19.7475 34.4656 19.7244C34.3713 19.7013 34.2898 19.6421 34.2386 19.5596C34.1896 19.4775 34.1751 19.3793 34.1983 19.2866C34.2215 19.1938 34.2805 19.114 34.3623 19.0646C34.877 18.7976 35.4483 18.6582 36.0281 18.6582C36.6079 18.6582 37.1793 18.7976 37.6939 19.0646C37.7378 19.0831 37.7774 19.1103 37.8104 19.1446C37.8435 19.1789 37.8692 19.2194 37.8861 19.2639C37.903 19.3084 37.9107 19.3559 37.9088 19.4034C37.9068 19.4509 37.8953 19.4976 37.8748 19.5406C37.8457 19.5947 37.807 19.6431 37.7606 19.6833Z"
            fill="#263238" />
        <path
            d="M26.8137 21.1105C26.7407 21.115 26.668 21.0985 26.6042 21.0629C26.5703 21.0292 26.5433 20.9892 26.5249 20.9451C26.5065 20.901 26.4971 20.8537 26.4971 20.8059C26.4971 20.7581 26.5065 20.7107 26.5249 20.6666C26.5433 20.6225 26.5703 20.5825 26.6042 20.5489C26.9911 20.1152 27.477 19.7814 28.0206 19.5759C28.5642 19.3704 29.1494 19.2992 29.7265 19.3685C29.82 19.387 29.9029 19.4409 29.9578 19.5189C30.0128 19.5968 30.0356 19.693 30.0216 19.7873C30.0009 19.8817 29.9452 19.9646 29.8656 20.0194C29.7861 20.0742 29.6887 20.0967 29.5932 20.0824C29.138 20.0393 28.6791 20.1029 28.2527 20.2681C27.8264 20.4333 27.4445 20.6957 27.1373 21.0343C27.0926 21.0707 27.0403 21.0964 26.9842 21.1096C26.9282 21.1228 26.8699 21.1231 26.8137 21.1105Z"
            fill="#263238" />
        <path
            d="M21.2549 12.8193L22.2068 16.0748C21.6898 16.4375 21.3271 16.9803 21.1897 17.5967C21.0524 18.2131 21.1503 18.8585 21.4643 19.4064C22.9873 22.0242 22.1021 26.6218 20.2363 28.6969C20.2363 28.6969 19.9698 27.4975 18.9989 27.9545C18.028 28.4114 19.313 34.6748 21.7975 37.3592C21.7975 37.3592 18.3421 35.1222 15.5721 28.7921C13.0115 22.9094 11.993 17.8358 12.8687 15.2657L21.2549 12.8193Z"
            fill="#263238" />
        <path
            d="M14.125 29.5255C15.1628 31.1458 16.7977 32.2916 18.675 32.7143C21.169 33.2474 22.2636 30.9819 21.445 28.7069C20.7025 26.6888 18.5132 23.9474 16.0668 24.4138C13.6205 24.8802 12.9256 27.536 14.125 29.5255Z"
            fill="#EEC1BB" />
        <path
            d="M16.5619 7.54631C16.5619 7.54631 19.1129 3.12 28.2892 4.15756C37.4655 5.19513 40.1308 11.411 39.4073 14.7045C38.6839 17.9981 35.0952 20.6825 35.0952 20.6825C35.3743 20.0195 35.5181 19.3075 35.5181 18.5883C35.5181 17.869 35.3743 17.157 35.0952 16.4941C34.3093 18.3043 33.0939 19.8955 31.5542 21.1298C31.5507 19.7572 31.3683 18.3908 31.0116 17.0652C30.8206 18.6094 30.1048 20.041 28.9841 21.1203C28.9841 21.1203 25.9095 19.6068 25.443 16.9701C25.4742 18.0763 25.634 19.1752 25.919 20.2446C23.3264 19.8588 20.8225 19.0177 18.5228 17.7601C15.3625 15.8563 13.1065 21.5677 13.1065 21.5677C13.1065 21.5677 7.50935 11.0874 16.5619 7.54631Z"
            fill="#263238" />
        <path
            d="M29.2793 29.3066C29.7463 30.0272 30.3846 30.6208 31.1371 31.0344C31.8895 31.448 32.7328 31.6687 33.5914 31.6769"
            stroke="#263238" stroke-width="0.75" stroke-linecap="round" stroke-linejoin="round" />
        <path
            d="M14.8291 41.9668H38.0268L39.2166 50.5338C39.2166 50.5338 39.5974 54.3414 31.4777 55.141C23.3581 55.9406 14.8291 51.0669 14.8291 51.0669V41.9668Z"
            fill="#407BFF" />
        <path opacity="0.2"
            d="M14.8291 41.9668H38.0268L39.2166 50.5338C39.2166 50.5338 39.5974 54.3414 31.4777 55.141C23.3581 55.9406 14.8291 51.0669 14.8291 51.0669V41.9668Z"
            fill="black" />
        <path opacity="0.6"
            d="M38.9697 105.02L37.8084 105.077C36.6947 81.4894 31.4307 55.1029 31.4307 55.1029V41.9668H32.7062V55.1886C36.9041 71.5993 38.4651 94.9492 38.9697 105.02Z"
            fill="white" />
        <path
            d="M46.3373 47.5254C53.5717 49.9051 66.013 70.3708 62.2339 76.4059C58.4549 82.4409 31.4307 79.2615 31.4307 79.2615C31.4307 79.2615 49.7641 72.3889 50.6304 69.7426C51.4966 67.0963 46.3373 47.5254 46.3373 47.5254Z"
            fill="#407BFF" />
        <path opacity="0.2"
            d="M62.2342 76.4061C59.5308 80.7563 44.9097 80.347 36.8186 79.7663C33.6108 79.5378 31.4404 79.2808 31.4404 79.2808C31.4404 79.2808 49.7644 72.4082 50.6306 69.7619C50.9257 68.8671 50.545 66.0781 49.9072 62.7655C48.6316 56.1974 46.3471 47.5352 46.3471 47.5352C53.5624 49.9054 66.0037 70.3711 62.2342 76.4061Z"
            fill="black" />
        <path opacity="0.2"
            d="M36.8186 79.7662C33.6108 79.5377 31.4404 79.2807 31.4404 79.2807C31.4404 79.2807 49.7644 72.4081 50.6306 69.7618C50.9257 68.867 50.545 66.0779 49.9072 62.7654L49.9833 62.7178L52.9532 67.8485C52.9532 67.8485 55.8375 77.6149 36.8186 79.7662Z"
            fill="black" />
        <path
            d="M4.98684 49.1631C-1.28614 51.3524 8.41366 79.9949 18.5037 84.7544C28.5938 89.5139 52.9052 67.8107 52.9052 67.8107C52.9052 67.8107 23.8534 74.0266 22.1876 72.5702C20.5217 71.1138 16.5333 67.3919 12.4973 59.3484C8.46126 51.3048 4.98684 49.1631 4.98684 49.1631Z"
            fill="#407BFF" />
        <path opacity="0.2"
            d="M4.98684 49.1631C-1.28614 51.3524 8.41366 79.9949 18.5037 84.7544C28.5938 89.5139 52.9052 67.8107 52.9052 67.8107C52.9052 67.8107 23.8534 74.0266 22.1876 72.5702C20.5217 71.1138 16.5333 67.3919 12.4973 59.3484C8.46126 51.3048 4.98684 49.1631 4.98684 49.1631Z"
            fill="black" />
        <path d="M31.4307 42.5L31.6686 45.765H33.5915L32.7062 42.5H31.4307Z" fill="white" />
        <path
            d="M33.7622 38.1211H32.5247C32.0936 38.1211 31.7441 38.4706 31.7441 38.9017V38.9112C31.7441 39.3423 32.0936 39.6917 32.5247 39.6917H33.7622C34.1933 39.6917 34.5427 39.3423 34.5427 38.9112V38.9017C34.5427 38.4706 34.1933 38.1211 33.7622 38.1211Z"
            fill="#263238" />
        <path
            d="M65.843 35.6084L68.7251 32.0254L71.8555 36.5847C71.8555 36.5847 68.8537 39.5183 67.0535 38.1613L65.843 35.6084Z"
            fill="#FFB573" />
        <path
            d="M81.0068 81.2287C89.2894 81.7751 96.3971 75.9124 95.4172 65.7412C90.8856 74.6449 83.8933 80.2568 81.0068 81.2287Z"
            fill="#263238" />
        <path opacity="0.1"
            d="M81.007 81.2279C89.1655 79.6827 94.6149 72.2211 91.1697 62.6143C88.9615 72.3734 83.5654 79.5618 81.007 81.2279Z"
            fill="#263238" />
        <path
            d="M57.4808 43.7327C57.4808 43.7327 53.4015 64.6932 56.9221 80.0105C54.5942 80.0105 54.2617 82.4827 55.654 83.8801H84.0801C84.5908 83.88 85.0961 83.7754 85.5655 83.5725C86.035 83.3697 86.4589 83.0728 86.8116 82.6998C87.1642 82.3268 87.4384 81.8855 87.6175 81.4025C87.7966 80.9195 87.8768 80.4048 87.8535 79.8895C87.5963 74.0358 85.2241 65.9024 78.4401 62.7315C76.7242 57.4152 72.7514 46.6349 74.5072 40.4184C76.2631 34.2019 68.1932 28.3124 61.9413 32.6657C57.8621 31.2057 50.5948 25.6386 48.5108 31.9402C46.4269 38.2418 57.4808 43.7327 57.4808 43.7327Z"
            fill="#C06828" />
        <path
            d="M54.0127 41.6228C50.9665 40.5389 45.965 40.0821 48.9313 35.4287C54.0792 35.8363 54.0127 41.6228 54.0127 41.6228Z"
            fill="#263238" />
        <path opacity="0.2"
            d="M68.073 82.1333H68.1306C68.1811 82.1177 68.2235 82.0826 68.2484 82.0356C68.2734 81.9886 68.2788 81.9335 68.2637 81.8825C68.1946 81.5838 68.1989 81.2725 68.2762 80.9759C68.3534 80.6792 68.5014 80.4062 68.707 80.1805C69.5938 79.0564 71.4295 78.3622 73.141 78.4965C73.1743 78.4991 73.2076 78.4931 73.2379 78.479C73.2682 78.4649 73.2943 78.4431 73.3139 78.4159C73.3334 78.3883 73.3459 78.3564 73.3506 78.3229C73.3552 78.2894 73.3518 78.2552 73.3406 78.2233C70.4097 70.2109 75.2738 65.2753 75.3225 65.235C75.3562 65.1968 75.3743 65.1471 75.373 65.0959C75.3717 65.0448 75.3512 64.996 75.3157 64.9596C75.2802 64.9231 75.2323 64.9017 75.1817 64.8996C75.131 64.8975 75.0815 64.9149 75.0432 64.9483C74.99 64.9976 70.0594 69.9869 72.8661 78.0845C71.0925 78.0397 69.3189 78.7608 68.3878 79.9342C68.1369 80.2078 67.9576 80.5404 67.8663 80.9017C67.7749 81.2631 67.7743 81.6417 67.8646 82.0034C67.8794 82.0458 67.9082 82.0818 67.9461 82.1054C67.984 82.1291 68.0288 82.1389 68.073 82.1333Z"
            fill="white" />
        <path
            d="M51.6806 29.2754C53.6892 29.0111 55.3032 30.5428 53.5296 31.3669C51.756 32.191 53.2547 30.4981 52.359 31.0937C51.4633 31.6894 50.4568 31.9268 50.2617 31.3669C50.0666 30.8071 50.4479 30.6593 50.6563 30.3189C50.8647 29.9785 49.6631 30.6011 49.9114 30.2025C50.3653 29.6804 50.9967 29.3496 51.6806 29.2754Z"
            fill="white" />
        <path
            d="M51.082 34.802C49.0069 36.3695 49.7518 38.5059 47.7388 37.9371C46.7678 37.6549 46.5638 34.8468 48.3019 33.4584C48.9049 33.8615 49.6543 32.8672 49.6543 32.8672C49.6543 32.8672 50.0134 34.3541 51.082 34.802Z"
            fill="#ED847E" />
        <path
            d="M53.5165 35.6301C53.7426 35.6301 53.889 35.6301 53.9111 35.6301C53.9374 35.6273 53.9629 35.6193 53.986 35.6065C54.0092 35.5937 54.0296 35.5764 54.0461 35.5555C54.0626 35.5347 54.0749 35.5108 54.0821 35.4851C54.0894 35.4595 54.0916 35.4326 54.0885 35.4061C54.0818 35.3539 54.0556 35.3062 54.0152 35.2729C53.9748 35.2395 53.9232 35.2231 53.8712 35.227C53.8446 35.227 51.3217 35.4733 50.1556 33.646C50.0689 33.522 50.0087 33.381 49.9789 33.2322C49.9492 33.0834 49.9504 32.9299 49.9826 32.7816C50.1794 32.2602 50.5451 31.8214 51.0202 31.5365C51.0651 31.5095 51.0977 31.4657 51.111 31.4146C51.1242 31.3635 51.1171 31.3092 51.0911 31.2633C51.0778 31.2403 51.0602 31.2201 51.0391 31.204C51.0181 31.1879 50.9941 31.1761 50.9685 31.1695C50.9429 31.1628 50.9163 31.1613 50.8901 31.1652C50.864 31.169 50.8389 31.178 50.8162 31.1917C50.2474 31.529 49.8154 32.059 49.5969 32.6876C49.5511 32.8887 49.5472 33.0972 49.5854 33.3C49.6235 33.5028 49.7029 33.6953 49.8186 33.8655C50.8339 35.442 52.6962 35.6301 53.5165 35.6301Z"
            fill="white" />
        <path
            d="M48.6391 33.7587C49.3042 33.7587 49.9205 32.863 49.9693 32.7599C49.9879 32.7384 50.0018 32.7132 50.01 32.6858C50.0182 32.6585 50.0205 32.6297 50.0169 32.6014C50.0132 32.573 50.0037 32.5458 49.9888 32.5215C49.974 32.4972 49.9542 32.4763 49.9307 32.4603C49.9073 32.4443 49.8808 32.4336 49.8529 32.4287C49.825 32.4239 49.7964 32.425 49.769 32.4322C49.7417 32.4394 49.7161 32.4523 49.694 32.4702C49.672 32.4881 49.654 32.5105 49.6412 32.536C49.4948 32.7465 49.0027 33.3511 48.6258 33.3511C48.577 33.3511 48.4174 33.3511 48.2533 33.0511C48.2269 33.0047 48.1833 32.9709 48.1321 32.9571C48.081 32.9432 48.0265 32.9504 47.9806 32.9772C47.9348 33.0039 47.9013 33.0479 47.8876 33.0996C47.8738 33.1512 47.881 33.2063 47.9075 33.2526C47.9689 33.3929 48.067 33.5137 48.1912 33.6021C48.3154 33.6904 48.461 33.743 48.6125 33.7542L48.6391 33.7587Z"
            fill="white" />
        <path
            d="M64.8536 32.7468C66.5607 31.215 69.6468 32.9169 69.2876 35.2638C68.9285 37.6107 61.8208 35.4654 64.8536 32.7468Z"
            fill="white" />
        <path
            d="M65.3952 33.0203C65.7367 32.4963 66.5747 32.9531 66.6013 33.7011C66.6279 34.449 64.7878 33.9474 65.3952 33.0203Z"
            fill="#263238" />
        <path
            d="M63.7409 32.1916C63.8783 32.8007 62.9738 33.0873 62.4107 32.6081C61.8476 32.1288 63.4926 31.1077 63.7409 32.1916Z"
            fill="#263238" />
        <path
            d="M71.7978 35.1747C72.29 30.9512 79.4287 39.5504 78.941 44.9742C78.4532 50.3979 73.7488 49.8202 72.4186 49.4126C71.0884 49.005 71.35 38.9368 71.7978 35.1747Z"
            fill="#263238" />
        <path opacity="0.8"
            d="M71.7978 35.1747C72.29 30.9512 79.4287 39.5504 78.941 44.9742C78.4532 50.3979 73.7488 49.8202 72.4186 49.4126C71.0884 49.005 71.35 38.9368 71.7978 35.1747Z"
            fill="#853D09" />
        <path
            d="M58.7792 83.8886H65.7583C66.4145 82.227 69.8996 73.1665 69.4784 69.2297C69.8894 69.599 70.211 70.0586 70.4184 70.5733C70.5239 70.0705 70.4976 69.5486 70.342 69.0592C70.1865 68.5698 69.9071 68.1299 69.5316 67.7831C69.8686 67.5726 70.5736 67.9398 70.5736 67.9398C70.5038 67.6203 70.3709 67.3183 70.1827 67.052C69.9945 66.7857 69.7549 66.5606 69.4784 66.3902C69.6608 66.1967 69.8106 65.9743 69.9218 65.7318C71.9969 61.7636 70.6622 56.8908 67.0441 54.2797C64.8493 52.6897 62.2953 52.7524 61.7234 57.5447C61.1514 62.3369 63.6699 75.6522 61.1558 81.6268C59.5197 81.385 58.9388 83.1989 58.7792 83.8886Z"
            fill="white" />
        <path opacity="0.2"
            d="M64.0163 45.1625C65.9451 45.1625 67.865 44.5802 68.7075 43.5009C68.7397 43.4586 68.7541 43.4053 68.7474 43.3524C68.7408 43.2995 68.7137 43.2514 68.672 43.2187C68.6303 43.1867 68.5781 43.1722 68.5261 43.178C68.4742 43.1839 68.4264 43.2096 68.3927 43.25C67.0625 44.9699 62.5265 45.2924 60.3228 43.8233C60.301 43.8086 60.2765 43.7984 60.2508 43.7933C60.225 43.7881 60.1985 43.7881 60.1728 43.7933C60.1471 43.7985 60.1226 43.8088 60.1008 43.8236C60.079 43.8383 60.0603 43.8573 60.0457 43.8793C60.0312 43.9014 60.021 43.9261 60.016 43.9521C60.0109 43.9781 60.0109 44.0049 60.016 44.0309C60.0212 44.0569 60.0314 44.0816 60.046 44.1036C60.0606 44.1256 60.0793 44.1445 60.1011 44.1592C61.2871 44.8584 62.6439 45.206 64.0163 45.1625Z"
            fill="white" />
    </g>

</svg>
