<svg width="16" height="19" viewBox="0 0 16 19" fill="none" xmlns="http://www.w3.org/2000/svg">
    <path fill-rule="evenodd" clip-rule="evenodd"
        d="M2.97385 2.97385C4.23768 1.71001 5.9518 1 7.73913 1C9.52646 1 11.2406 1.71001 12.5044 2.97385C13.7682 4.23768 14.4783 5.9518 14.4783 7.73913C14.4783 10.3534 12.7856 12.8456 10.9957 14.7349C10.111 15.6688 9.22458 16.4323 8.55878 16.9625C8.22628 17.2272 7.94981 17.433 7.75744 17.5719L7.73913 17.5852L7.72082 17.5719C7.52845 17.433 7.25198 17.2272 6.91948 16.9625C6.25368 16.4323 5.36726 15.6688 4.48254 14.7349C2.69265 12.8456 1 10.3534 1 7.73913C1 5.9518 1.71001 4.23768 2.97385 2.97385ZM7.46148 18.6115C7.46164 18.6116 7.46178 18.6117 7.73913 18.1957L7.46178 18.6117C7.62973 18.7236 7.84853 18.7236 8.01648 18.6117L7.73913 18.1957C8.01648 18.6117 8.01662 18.6116 8.01678 18.6115L8.01725 18.6112L8.01868 18.6102L8.0235 18.607L8.04083 18.5953C8.05575 18.5851 8.07732 18.5704 8.10511 18.5511C8.16069 18.5126 8.24115 18.4561 8.34293 18.3826C8.54645 18.2356 8.83554 18.0204 9.18171 17.7447C9.87325 17.1941 10.7966 16.3991 11.7217 15.4227C13.5513 13.4914 15.4783 10.7553 15.4783 7.73913C15.4783 5.68659 14.6629 3.71811 13.2115 2.26674C11.7602 0.81537 9.79168 0 7.73913 0C5.68659 0 3.71811 0.81537 2.26674 2.26674C0.81537 3.71811 0 5.68659 0 7.73913C0 10.7553 1.92691 13.4914 3.75659 15.4227C4.68165 16.3991 5.60501 17.1941 6.29655 17.7447C6.64272 18.0204 6.93181 18.2356 7.13533 18.3826C7.23711 18.4561 7.31757 18.5126 7.37315 18.5511C7.40094 18.5704 7.42251 18.5851 7.43743 18.5953L7.45476 18.607L7.45958 18.6102L7.46101 18.6112L7.46148 18.6115ZM5.82609 7.73913C5.82609 6.68259 6.68259 5.82609 7.73913 5.82609C8.79568 5.82609 9.65217 6.68259 9.65217 7.73913C9.65217 8.79568 8.79568 9.65217 7.73913 9.65217C6.68259 9.65217 5.82609 8.79568 5.82609 7.73913ZM7.73913 4.82609C6.1303 4.82609 4.82609 6.1303 4.82609 7.73913C4.82609 9.34796 6.1303 10.6522 7.73913 10.6522C9.34796 10.6522 10.6522 9.34796 10.6522 7.73913C10.6522 6.1303 9.34796 4.82609 7.73913 4.82609Z"
        fill="#979797" />
</svg>
