<svg width="94" height="70" viewBox="0 0 94 70" fill="none" xmlns="http://www.w3.org/2000/svg"
    xmlns:xlink="http://www.w3.org/1999/xlink">
    <g>
        <path
            d="M59.0528 43.6133C63.4125 43.8798 70.5708 72.4366 70.5708 72.4366L96.4052 77.2723V83.3263C96.4052 83.3263 69.2 80.4706 67.3724 80.3564C65.5448 80.2422 56.6826 58.3772 56.6826 58.3772L58.139 46.4023L59.0528 43.6133Z"
            fill="#263238" />
        <path
            d="M96.4052 77.2723V83.3263C96.4052 83.3263 69.1905 80.4706 67.3724 80.3564C67.2201 80.3564 67.0107 80.1851 66.7727 79.8995C64.9927 77.7863 61.0613 68.8575 58.6816 63.1842C57.5013 60.3285 56.6826 58.3676 56.6826 58.3676L58.139 46.3928L59.0909 43.6133C63.4506 43.8798 70.6088 72.4366 70.6088 72.4366L96.4052 77.2723Z"
            fill="#69BC9D" />
        <path opacity="0.2"
            d="M66.8011 79.8994C65.021 77.7862 61.0897 68.8575 58.71 63.1842L62.3748 56.2354C62.3748 56.2354 68.0766 69.895 66.8011 79.8994Z"
            fill="black" />
        <path
            d="M30.7434 17.5315C30.8101 17.008 30.8005 16.4464 30.8577 15.8276C30.8835 15.0935 31.1102 14.3806 31.513 13.7664C31.9158 13.1521 32.4793 12.66 33.1422 12.3437C33.7879 12.2084 34.4239 12.0304 35.046 11.8106C35.9979 11.3157 36.3882 10.2115 37.0926 9.41186C37.4652 8.99615 37.9217 8.66415 38.4319 8.43773C38.9422 8.2113 39.4947 8.09559 40.0529 8.09824C41.4332 8.09824 42.7944 8.85025 44.1271 8.49805C44.6039 8.34707 45.061 8.13933 45.4883 7.87931C46.2999 7.40071 47.2063 7.10508 48.144 7.01308C48.6149 6.97011 49.0894 7.03333 49.5325 7.19807C49.9757 7.36281 50.3762 7.62488 50.7046 7.96498C51.1806 8.479 51.4376 9.21197 52.0278 9.58321C53.151 10.3066 54.7692 9.36427 55.9306 10.0211C56.93 10.5827 57.0919 12.0581 58.0533 12.6769C58.4816 12.9529 59.0052 13.0195 59.4526 13.2861C59.7572 13.5084 60.0107 13.7933 60.1962 14.1217C60.3817 14.45 60.4949 14.8142 60.5282 15.1899C60.6424 15.9419 60.6043 16.7224 60.7566 17.4649C61.1088 19.1878 62.1559 19.6638 63.4124 20.5871C64.431 21.3391 66.0397 22.7574 65.0783 24.1377C63.6504 26.2033 61.6514 27.7929 63.5172 29.335C65.3829 30.8771 68.4384 31.8956 67.0772 33.7518C65.716 35.608 63.5457 36.36 65.0021 38.14C66.4585 39.9201 66.687 41.9 65.0687 42.8234C65.0687 42.8234 66.1158 41.4621 64.1168 40.1961C62.1179 38.9301 62.0417 37.626 62.0417 37.626C61.6711 37.9593 61.3969 38.3861 61.2478 38.8617C61.0988 39.3373 61.0804 39.8442 61.1945 40.3294C61.3303 40.7823 61.3614 41.26 61.2855 41.7267C61.2097 42.1933 61.0288 42.6367 60.7566 43.0232C60.7566 43.0232 61.0898 43.1375 59.6144 41.5193C59.1957 41.136 58.8939 40.6422 58.744 40.0948C58.5941 39.5473 58.6021 38.9687 58.7672 38.4256C58.7672 38.4256 57.4155 41.919 56.9776 43.1851C56.5398 44.4511 49.1721 46.0979 47.6776 45.3744C46.1832 44.651 40.8621 45.2792 40.9001 42.5187C40.588 42.9074 40.4179 43.391 40.4179 43.8895C40.4179 44.388 40.588 44.8715 40.9001 45.2602C40.4592 45.1683 40.0533 44.9532 39.7298 44.6397C39.4063 44.3263 39.1783 43.9275 39.0725 43.4897C38.6537 41.9286 36.6452 40.1581 36.6452 40.1581C36.6452 40.1581 38.6156 42.5949 37.3972 44.0227C37.0512 44.3675 36.8305 44.8181 36.7702 45.3028C36.7098 45.7875 36.8132 46.2784 37.064 46.6976C37.064 46.6976 35.0745 45.2507 35.0269 44.1274C34.9794 43.0042 36.4643 41.7477 33.5515 40.3199C30.6387 38.892 31.6477 37.864 31.6477 37.864C31.2862 38.4331 31.0942 39.0935 31.0942 39.7678C31.0942 40.4421 31.2862 41.1024 31.6477 41.6716C32.9138 43.4326 30.8005 45.5362 30.8005 45.5362C30.8005 45.5362 32.2189 43.3279 30.6578 42.3379C29.0967 41.3479 28.0401 39.3299 29.0871 38.0163C28.5997 38.2342 28.1981 38.6072 27.945 39.0773C27.6918 39.5474 27.6014 40.0881 27.6879 40.615C27.7735 42.7282 26.5837 43.2231 26.5837 43.2231C26.5837 43.2231 27.3547 41.3194 26.4694 40.6721C25.5842 40.0248 25.3938 37.5594 26.2886 36.4647C27.1833 35.37 27.9639 33.0569 26.6312 31.5529C25.2986 30.0489 24.9464 28.821 26.4504 27.5359C27.9544 26.2509 28.1352 23.4809 27.6498 21.8246C27.3166 20.6918 29.0871 20.0064 29.7725 19.4639C30.0622 19.2291 30.2986 18.9354 30.466 18.6022C30.6334 18.2691 30.728 17.9041 30.7434 17.5315Z"
            fill="#263238" />
        <path
            d="M44.774 52.0373C38.1869 49.5243 36.8447 46.1355 36.8447 46.1355C42.1373 43.1085 40.2525 35.1982 40.2525 35.1982L48.0676 38.6917C47.6053 39.7866 47.2204 40.9126 46.9158 42.0614C45.6593 47.0113 47.8677 47.6014 47.8677 47.6014C48.7148 50.6284 44.774 52.0373 44.774 52.0373Z"
            fill="#9F5B53" />
        <path opacity="0.2"
            d="M48.068 38.6917C47.6057 39.7866 47.2208 40.9126 46.9162 42.0614C41.3952 40.7288 40.2529 35.1982 40.2529 35.1982L48.068 38.6917Z"
            fill="black" />
        <path
            d="M38.4152 12.9629C38.4152 12.9629 34.1793 13.3341 32.7038 20.1592C31.2284 26.9843 35.8546 38.5593 41.6231 37.2933C47.3916 36.0273 38.4152 12.9629 38.4152 12.9629Z"
            fill="#263238" />
        <path
            d="M55.5403 34.3796C55.4642 34.6271 55.388 34.865 55.3119 35.0935C54.2553 38.0348 52.123 39.853 48.4392 39.7863C47.9046 39.7909 47.3703 39.7591 46.84 39.6911L45.7739 39.5198C33.266 37.1401 33.247 14.2946 45.4027 13.9424C52.7227 13.7235 55.1881 17.5882 55.9401 25.1081C56.3674 28.1974 56.2319 31.3385 55.5403 34.3796Z"
            fill="#9F5B53" />
        <path
            d="M51.1992 24.833C51.8154 25.9121 52.5601 26.9126 53.4171 27.8124C53.2112 28.1195 52.9244 28.3638 52.5885 28.5183C52.2526 28.6728 51.8805 28.7316 51.5133 28.6882L51.1992 24.833Z"
            fill="#892B29" />
        <path
            d="M46.7064 24.366C46.7064 24.9657 46.4303 25.4702 46.0305 25.4892C45.6307 25.5083 45.2785 25.0419 45.25 24.4422C45.2214 23.8425 45.5165 23.338 45.9163 23.3189C46.3161 23.2999 46.6683 23.7663 46.7064 24.366Z"
            fill="#263238" />
        <path d="M45.7549 23.357L47.0304 22.7764C47.0304 22.7764 46.4402 23.9091 45.7549 23.357Z"
            fill="#263238" />
        <path
            d="M54.1597 23.8523C54.1597 24.452 53.8932 24.9565 53.4934 24.9756C53.0936 24.9946 52.7414 24.5282 52.7128 23.9285C52.6843 23.3288 52.9794 22.8243 53.3792 22.8053C53.779 22.7862 54.1312 23.2526 54.1597 23.8523Z"
            fill="#263238" />
        <path d="M53.2178 22.8434L54.4933 22.2627C54.4933 22.2627 53.9031 23.3955 53.2178 22.8434Z"
            fill="#263238" />
        <path
            d="M43.3363 20.8538C43.2612 20.8539 43.188 20.8306 43.1268 20.7872C43.0909 20.7593 43.0608 20.7245 43.0384 20.6849C43.0161 20.6453 43.0018 20.6016 42.9965 20.5564C42.9912 20.5112 42.9949 20.4654 43.0075 20.4217C43.0201 20.378 43.0412 20.3372 43.0697 20.3017C43.5008 19.8268 44.0368 19.459 44.635 19.2277C45.2332 18.9963 45.8771 18.9078 46.5156 18.9691C46.6064 18.9809 46.6894 19.0269 46.7477 19.0975C46.806 19.1682 46.8353 19.2584 46.8297 19.3498C46.8263 19.3954 46.8135 19.4398 46.7921 19.4803C46.7708 19.5208 46.7413 19.5564 46.7056 19.585C46.6699 19.6135 46.6287 19.6345 46.5845 19.6464C46.5403 19.6584 46.4942 19.6611 46.4489 19.6544C45.9235 19.6069 45.3941 19.678 44.8998 19.8625C44.4055 20.0471 43.959 20.3403 43.5933 20.7205C43.5623 20.7597 43.5234 20.7918 43.4791 20.8148C43.4348 20.8378 43.3861 20.8511 43.3363 20.8538Z"
            fill="#263238" />
        <path
            d="M54.7309 19.7111C54.6688 19.7296 54.6027 19.7296 54.5406 19.7111C54.1687 19.4388 53.7406 19.253 53.2877 19.1674C52.8348 19.0817 52.3685 19.0984 51.9228 19.2161C51.8811 19.2345 51.8361 19.2442 51.7906 19.2445C51.745 19.2448 51.6998 19.2357 51.6579 19.2179C51.616 19.2 51.5781 19.1738 51.5468 19.1407C51.5154 19.1077 51.4911 19.0685 51.4755 19.0257C51.4584 18.9839 51.4498 18.939 51.4502 18.8939C51.4506 18.8487 51.4599 18.804 51.4776 18.7624C51.4953 18.7208 51.521 18.6832 51.5533 18.6516C51.5856 18.62 51.6239 18.5951 51.6658 18.5783C52.213 18.4202 52.7887 18.3869 53.3505 18.4808C53.9122 18.5747 54.4458 18.7934 54.9118 19.1209C54.9501 19.1451 54.9833 19.1767 55.0093 19.2138C55.0353 19.2509 55.0538 19.2928 55.0635 19.337C55.0732 19.3813 55.0741 19.427 55.066 19.4716C55.058 19.5163 55.0411 19.5588 55.0165 19.5969C54.9816 19.6374 54.9374 19.669 54.8877 19.6889C54.838 19.7088 54.7842 19.7164 54.7309 19.7111Z"
            fill="#263238" />
        <path
            d="M37.7584 26.5079C37.7584 26.5079 41.0044 20.3968 40.3571 15.7706C40.3571 15.7706 54.6831 9.42143 55.8254 24.1282C55.8254 24.1282 56.863 11.0111 44.2789 11.0872C31.6949 11.1634 32.2755 29.5635 38.9293 34.8846C38.9293 34.856 35.75 30.325 37.7584 26.5079Z"
            fill="#263238" />
        <path
            d="M38.996 28.0214C38.9521 27.6009 38.8256 27.1933 38.6236 26.8219C38.4217 26.4505 38.1483 26.1227 37.8192 25.8573C37.4902 25.5919 37.1119 25.3942 36.7061 25.2755C36.3004 25.1568 35.8752 25.1195 35.455 25.1657C33.199 25.4798 32.2471 30.1631 37.9204 31.1245C38.739 31.2768 39.1959 30.4773 38.996 28.0214Z"
            fill="#9F5B53" />
        <path
            d="M51.4855 31.382C50.865 32.0483 50.2924 32.7577 49.772 33.5047L49.3342 33.2953C47.3828 32.3434 46.7926 31.2487 46.7355 30.3254C46.7162 29.6192 46.9453 28.9287 47.3828 28.374C48.3241 29.5008 49.4958 30.4128 50.8191 31.0488C51.2189 31.2678 51.4855 31.382 51.4855 31.382Z"
            fill="#263238" />
        <path
            d="M50.8188 31.0488L50.3048 31.6581C48.4676 30.7062 47.2873 29.8685 46.9922 29.0213C47.0904 28.7879 47.2219 28.5698 47.3825 28.374C48.3238 29.5008 49.4955 30.4128 50.8188 31.0488Z"
            fill="white" />
        <path
            d="M49.334 33.2951C47.3826 32.3432 46.7925 31.2485 46.7354 30.3252C47.4778 30.7035 48.148 31.2094 48.7153 31.8197C49.0683 32.2362 49.2843 32.7514 49.334 33.2951Z"
            fill="#DE5753" />
        <path
            d="M63.8309 82.4791L26.6309 88.1048L27.7731 57.0254L60.3279 56.2354C60.3279 56.2354 64.2878 69.381 63.8309 82.4791Z"
            fill="#263238" />
        <path
            d="M30.9049 91.8172L60.8229 89.1614C60.8229 89.1614 63.7357 57.311 59.0524 43.6133L56.8916 43.7085C51.9798 43.9655 39.5195 44.8983 28.7441 47.973C28.0206 48.1729 27.3257 48.3918 26.6309 48.6012C26.6309 48.6012 32.0091 69.3715 30.9049 91.8172Z"
            fill="#69BC9D" />
        <path
            d="M28.7246 47.9735C29.0102 48.2495 39.3858 58.3586 48.1528 55.8361C56.5199 53.4088 56.8626 44.737 56.8721 43.709C51.9794 43.966 39.5191 44.8989 28.7246 47.9735Z"
            fill="#9F5B53" />
        <path
            d="M24.2227 91.8177L25.2697 92.7696L25.7838 93.2075C34.7316 75.2833 30.1815 47.3262 30.1815 47.3262L26.6309 48.6398C26.8594 53.028 26.8689 57.54 26.7547 61.9092C26.4591 71.9176 25.6138 81.9021 24.2227 91.8177Z"
            fill="#263238" />
        <path
            d="M55.207 43.6133C55.207 43.6133 64.726 64.4122 62.47 85.944L64.2786 84.4876C64.2786 84.4876 64.0596 52.9323 59.0527 43.6133H55.207Z"
            fill="#263238" />
        <path
            d="M25.7838 93.1686L25.2697 92.7308L24.2227 91.7789C24.2227 91.7789 25.641 82.3932 26.3834 70.3041C26.5357 67.8673 26.65 65.3162 26.7357 62.689C26.7357 62.3939 26.7357 62.0988 26.7357 61.8037C26.8499 57.4345 26.8404 52.9226 26.6119 48.5343L30.1625 47.2207C30.1625 47.2207 34.722 75.2445 25.7838 93.1686Z"
            fill="#69BC9D" />
        <path
            d="M55.207 43.6133C55.207 43.6133 64.726 64.4122 62.47 85.944L64.2786 84.4876C64.2786 84.4876 64.0596 52.9323 59.0527 43.6133H55.207Z"
            fill="#69BC9D" />
        <path
            d="M46.3734 27.9171C45.7061 27.919 45.0533 27.7228 44.4977 27.3532C43.9421 26.9837 43.5087 26.4575 43.2525 25.8414C42.9963 25.2252 42.9287 24.5469 43.0584 23.8924C43.1881 23.2378 43.5093 22.6365 43.9811 22.1647C44.4529 21.6929 45.0542 21.3717 45.7088 21.242C46.3633 21.1123 47.0417 21.1798 47.6578 21.4361C48.2739 21.6923 48.8001 22.1257 49.1696 22.6813C49.5392 23.2369 49.7354 23.8897 49.7336 24.5569C49.731 25.4474 49.3762 26.3006 48.7466 26.9302C48.117 27.5598 47.2638 27.9146 46.3734 27.9171ZM46.3734 21.6632C45.8086 21.6632 45.2564 21.8307 44.7868 22.1445C44.3172 22.4582 43.9512 22.9042 43.735 23.4261C43.5189 23.9479 43.4624 24.522 43.5725 25.076C43.6827 25.6299 43.9547 26.1388 44.3541 26.5381C44.7535 26.9375 45.2623 27.2095 45.8162 27.3197C46.3702 27.4299 46.9444 27.3733 47.4662 27.1572C47.988 26.941 48.434 26.575 48.7478 26.1054C49.0616 25.6358 49.229 25.0837 49.229 24.5189C49.2341 24.1407 49.1639 23.7652 49.0227 23.4144C48.8814 23.0635 48.6719 22.7442 48.4062 22.4749C48.1405 22.2057 47.824 21.992 47.4751 21.8461C47.1261 21.7002 46.7516 21.6251 46.3734 21.6251V21.6632Z"
            fill="#263238" />
        <path
            d="M54.5689 26.632C53.9025 26.632 53.251 26.4344 52.6968 26.0641C52.1427 25.6938 51.7108 25.1676 51.4557 24.5518C51.2007 23.9361 51.1339 23.2586 51.264 22.6049C51.394 21.9512 51.7149 21.3508 52.1862 20.8795C52.6574 20.4083 53.2579 20.0873 53.9115 19.9573C54.5652 19.8273 55.2427 19.894 55.8585 20.1491C56.4742 20.4041 57.0005 20.836 57.3707 21.3902C57.741 21.9443 57.9386 22.5958 57.9386 23.2623C57.9386 24.156 57.5836 25.0131 56.9517 25.645C56.3197 26.277 55.4626 26.632 54.5689 26.632ZM54.5689 20.3685C54.0041 20.3685 53.452 20.536 52.9824 20.8498C52.5128 21.1636 52.1468 21.6096 51.9306 22.1314C51.7145 22.6532 51.6579 23.2274 51.7681 23.7813C51.8783 24.3353 52.1503 24.8441 52.5497 25.2435C52.949 25.6429 53.4579 25.9148 54.0118 26.025C54.5658 26.1352 55.1399 26.0787 55.6617 25.8625C56.1836 25.6464 56.6295 25.2804 56.9433 24.8107C57.2571 24.3411 57.4246 23.789 57.4246 23.2242C57.4246 22.4668 57.1237 21.7405 56.5882 21.2049C56.0526 20.6694 55.3263 20.3685 54.5689 20.3685Z"
            fill="#263238" />
        <path
            d="M49.429 24.1088C49.3701 24.1089 49.313 24.0887 49.2671 24.0517C49.2229 24.0056 49.1982 23.9442 49.1982 23.8804C49.1982 23.8165 49.2229 23.7551 49.2671 23.709C49.6558 23.2778 50.193 23.0092 50.7711 22.957C50.948 22.9665 51.1204 23.0159 51.2754 23.1017C51.4304 23.1874 51.5639 23.3072 51.6659 23.452C51.6989 23.5017 51.7121 23.5619 51.7028 23.6208C51.6935 23.6797 51.6625 23.733 51.6158 23.7701C51.5691 23.8072 51.5103 23.8254 51.4508 23.8211C51.3913 23.8169 51.3356 23.7905 51.2947 23.7471C51.2336 23.6574 51.1531 23.5826 51.0592 23.5282C50.9653 23.4738 50.8603 23.4413 50.7521 23.433C50.3166 23.4959 49.9163 23.7079 49.6193 24.0327C49.5968 24.0606 49.5675 24.0823 49.5341 24.0956C49.5008 24.109 49.4646 24.1135 49.429 24.1088Z"
            fill="#263238" />
        <path
            d="M36.3398 25.232C36.2783 25.2321 36.2191 25.2083 36.1748 25.1657C36.1304 25.1231 36.1042 25.065 36.1018 25.0036C36.0991 24.942 36.1205 24.8818 36.1613 24.8356C36.2021 24.7895 36.2593 24.7609 36.3207 24.7561L43.1934 24.2801C43.2247 24.2775 43.2561 24.2811 43.286 24.2907C43.3159 24.3003 43.3436 24.3158 43.3674 24.3361C43.3913 24.3565 43.411 24.3813 43.4252 24.4093C43.4394 24.4373 43.448 24.4678 43.4504 24.4991C43.453 24.5303 43.4494 24.5618 43.4398 24.5917C43.4302 24.6215 43.4148 24.6492 43.3944 24.6731C43.3741 24.697 43.3492 24.7166 43.3212 24.7309C43.2933 24.7451 43.2628 24.7537 43.2315 24.7561L36.3588 25.232H36.3398Z"
            fill="#263238" />
        <path
            d="M27 48.5V70.5C20.6889 76.3161 13.0776 80.3454 8.31817 84.3053C7.22533 79.6294 6.80861 74.821 7.08071 70.0268C13.3061 63.2494 18 53 27 48.5Z"
            fill="#69BC9D" />
        <path opacity="0.2"
            d="M28 70.6307C28.1523 68.1938 28.2665 65.6427 28.3522 63.0155C28.703 62.9799 29.0573 63.0057 29.3993 63.0917C29.4435 65.6731 28.9676 68.237 28 70.6307Z"
            fill="black" />
    </g>
</svg>
